<?xml version="1.0" standalone="no"?>
<!DOCTYPE svg PUBLIC "-//W3C//DTD SVG 20010904//EN"
 "http://www.w3.org/TR/2001/REC-SVG-20010904/DTD/svg10.dtd">
<svg version="1.0" xmlns="http://www.w3.org/2000/svg"
 width="16.000000pt" height="16.000000pt" viewBox="0 0 16.000000 16.000000"
 preserveAspectRatio="xMidYMid meet">
<metadata>
Created by potrace 1.11, written by Peter Selinger 2001-2013
</metadata>
<g transform="translate(0.000000,16.000000) scale(0.002286,-0.002286)"
fill="#000000" stroke="none">
<path d="M2715 5463 c-297 -31 -587 -195 -823 -467 l-33 -38 -92 45 c-163 80
-278 108 -422 103 -146 -5 -274 -58 -396 -166 -60 -52 -151 -172 -193 -253
-16 -31 -33 -54 -36 -52 -13 8 -106 18 -154 17 -213 -6 -285 -175 -211 -497 8
-33 21 -80 29 -104 22 -62 21 -66 -27 -85 -74 -28 -190 -102 -245 -156 -162
-160 -142 -354 57 -559 69 -71 62 -72 121 31 263 465 658 826 1127 1031 152
66 404 144 523 162 25 4 47 8 50 10 3 2 26 6 50 9 25 4 56 9 70 11 180 31 642
50 780 33 123 -16 150 -21 260 -48 200 -50 435 -144 567 -227 29 -18 55 -33
58 -33 9 0 183 -119 256 -174 117 -90 181 -148 329 -296 191 -190 311 -328
435 -500 22 -30 42 -57 46 -60 9 -8 259 -386 259 -393 0 -3 13 -25 29 -49 58
-88 150 -259 293 -545 66 -134 130 -254 143 -267 14 -16 43 -28 81 -36 32 -7
64 -14 70 -17 14 -5 152 133 214 213 76 97 81 154 27 289 -66 162 -160 295
-254 360 -50 35 -142 74 -203 86 -36 7 -69 16 -73 19 -4 4 17 26 48 50 177
137 290 319 284 460 -5 105 -44 180 -119 229 -107 70 -270 52 -482 -54 -37
-19 -68 -33 -68 -31 0 3 9 25 20 50 26 62 47 179 44 243 -5 86 -36 135 -125
203 -130 97 -249 143 -369 142 l-57 0 14 66 c22 101 12 206 -26 288 -75 160
-286 284 -481 285 -90 0 -110 -3 -313 -43 -86 -17 -159 -29 -161 -27 -2 2 -6
22 -9 44 -28 233 -172 449 -382 572 -145 85 -382 141 -530 126z"/>
<path d="M4806 4646 c39 -73 62 -140 70 -206 4 -25 7 -49 8 -54 0 -6 35 -25
76 -43 132 -58 264 -150 338 -235 33 -37 80 -124 87 -159 11 -55 9 -54 107
-55 155 -1 280 -54 376 -158 62 -69 96 -129 124 -220 22 -72 28 -180 14 -259
-9 -58 -61 -183 -102 -250 l-37 -59 32 -25 c105 -82 191 -205 268 -383 142
-325 112 -445 -190 -759 l-81 -84 40 -36 c74 -65 175 -103 312 -117 104 -10
323 -11 367 -2 60 13 136 51 179 89 213 186 259 552 134 1068 -101 419 -314
785 -663 1136 -167 168 -292 273 -486 407 -184 128 -481 286 -664 355 -22 8
-49 19 -60 24 -24 10 -267 89 -276 89 -4 0 9 -29 27 -64z"/>
<path d="M2638 4295 c-3 -2 -47 -5 -298 -20 -175 -11 -484 -72 -630 -125 -344
-124 -587 -276 -825 -514 -148 -148 -239 -267 -374 -486 -33 -54 -113 -217
-157 -318 -42 -98 -146 -396 -158 -453 -9 -42 -14 -63 -31 -129 -10 -36 -19
-78 -22 -95 -2 -16 -8 -46 -13 -65 -5 -19 -12 -53 -15 -75 -3 -22 -10 -65 -15
-95 -13 -77 -19 -126 -25 -190 -3 -30 -7 -76 -10 -101 l-6 -46 2741 0 2741 0
-23 26 c-13 14 -27 31 -33 36 -77 75 -176 217 -229 330 -48 100 -172 348 -197
392 -10 18 -35 63 -55 100 -36 65 -103 181 -124 213 -6 8 -13 22 -17 30 -4 8
-53 83 -109 167 -576 861 -1204 1328 -1891 1408 -63 7 -220 14 -225 10z m380
-819 c133 -69 170 -266 69 -374 -73 -78 -193 -102 -285 -56 -116 58 -167 199
-114 315 57 123 210 177 330 115z m801 -322 c100 -50 149 -153 126 -267 -14
-72 -54 -123 -126 -160 -48 -26 -62 -28 -119 -24 -36 3 -78 11 -93 20 -116 62
-166 200 -113 313 31 64 58 91 120 120 70 33 136 32 205 -2z m-483 -646 c86
-40 140 -134 131 -230 -19 -206 -269 -299 -409 -151 -67 70 -86 173 -47 263
54 126 198 178 325 118z"/>
</g>
</svg>
