<?xml version="1.0" encoding="utf-8"?>
<!-- Generator: Adobe Illustrator 16.0.0, SVG Export Plug-In . SVG Version: 6.00 Build 0)  -->
<!DOCTYPE svg PUBLIC "-//W3C//DTD SVG 1.1//EN" "http://www.w3.org/Graphics/SVG/1.1/DTD/svg11.dtd">
<svg version="1.1" id="Layer_1" xmlns="http://www.w3.org/2000/svg" xmlns:xlink="http://www.w3.org/1999/xlink" x="0px" y="0px"
	 width="612px" height="792px" viewBox="0 0 612 792" enable-background="new 0 0 612 792" xml:space="preserve">
<g opacity="0.3">
	<g id="Layer_2_35_">
		<path fill="#FFFFFF" d="M411.486,304.895c4.266,6.005,8.363,14.544,8.969,25.704c8.014,2.553,17.529,7.325,27.475,16.026
			c6.357,5.565,9.812,12.575,11.197,20.062c2.15-0.268,4.342-0.421,6.531-0.421c15.615,0,28.482,7.822,35.305,21.458
			c9.084,18.167,3.309,35.822-6.799,49.83c7.172,5.289,13.912,12.652,18.953,22.73c16.791,33.594,12.699,42.076-15.74,70.514
			l-0.889,0.894c9.389,11.653,24.982,12.36,48.021,12.36c4.562,0,16.094-1.262,24.881-12.905
			c8.725-11.562,16.199-35.536,2.324-84.097C554.98,388.423,491.018,326.496,411.486,304.895z"/>
		<path fill="#FFFFFF" d="M496,468.776c-10.424-20.848-29.777-23.704-35.027-24.1c-0.812-0.058-1.311-0.064-1.365-0.064l0,0
			c0,0,0.422-0.286,1.014-0.709c5.613-3.979,34.215-25.692,23.246-47.63c-4.082-8.175-10.932-10.881-18.197-10.881
			c-12.307,0-25.789,7.717-29.354,9.907c-0.584,0.354-0.969,0.602-0.969,0.602s0.229-0.468,0.584-1.262
			c2.26-5.068,9.906-24.432-0.584-33.622c-13.863-12.135-25.691-14.085-31.854-14.085c-0.133,0-0.229,0.009-0.354,0.009
			c-2.656,0.039-4.195,0.421-4.195,0.421c0.459-1.377,0.717-2.658,1.043-3.968c8.229-33.258-25.771-44.562-37.439-44.562
			c-4.887,0-11.73,0.985-18.168,2.161c-7.438,1.358-14.312,2.955-17.012,3.605c-0.768,0.182-1.215,0.297-1.215,0.297
			s0-0.249-0.021-0.641c-0.076-1.827-0.562-7.631-3.061-14.889c-0.977-2.84-2.285-5.881-3.998-9.017
			c-6.35-11.657-18.378-24.27-41.452-30.046c-5.393-1.348-10.633-1.951-15.692-1.951c-40.469,0-69.232,38.346-69.232,38.346
			c-14-8.396-26.058-11.628-36.328-11.628c-34.234,0-48.597,35.898-48.597,35.898c-4.408-1.1-8.224-1.607-11.503-1.607
			c-32.809,0-12.756,50.136-12.756,50.136c-56.639,22.654-18.092,55.883-12.737,60.187c27.798-52.68,78.345-99.04,170.184-101.592
			c1.062-0.029,2.859-0.201,4.733-0.383c2.907-0.268,5.958-0.535,7.669-0.535c107.318,0,176.838,110.801,210.316,181.688
			c1.07,2.273,2.113,4.515,3.117,6.703c1.352,2.943,3.375,5.984,5.66,9.019l7.021,1.653l4.392,1.029
			c1.615-1.613,3.117-3.115,4.521-4.529C508.059,492.912,507.322,491.421,496,468.776z"/>
		<path fill="#FFFFFF" d="M452.854,519.783c-1.279-2.074-2.484-4.171-3.449-6.283c-0.729-1.597-1.502-3.24-2.277-4.896
			C415.925,442,351.015,336.288,253.362,336.288c-1.31,0-3.663,0.239-5.891,0.449c-2.362,0.22-4.628,0.431-5.977,0.469
			c-79.809,2.218-125.326,41.444-151.241,87.381c-1.625,2.889-3.165,5.805-4.647,8.73c-1.482,2.937-2.878,5.891-4.208,8.854
			c-15.92,35.382-21.868,72.39-23.981,98.229h412.525c-2.756-2.688-5.479-5.636-8.127-8.687
			C458.486,527.912,455.406,523.923,452.854,519.783z M253.361,414.088c0-10.05,8.147-18.197,18.197-18.197
			c10.05,0,18.197,8.147,18.197,18.197s-8.147,18.198-18.197,18.198C261.508,432.286,253.361,424.138,253.361,414.088z
			 M313.997,487.099c-0.038,3.375-1.033,6.514-2.679,9.207c-3.193,5.24-8.911,8.779-15.5,8.779c-9.524,0-17.26-7.344-18.044-16.668
			c-0.048-0.516-0.153-1.004-0.153-1.529c0-2.85,0.708-5.508,1.875-7.906c1.664-3.426,4.351-6.207,7.679-8.022
			c2.582-1.406,5.499-2.274,8.635-2.274c6.187,0,11.638,3.1,14.927,7.821c2.056,2.945,3.27,6.513,3.27,10.375
			C314.016,486.955,313.997,487.021,313.997,487.099z M332.213,456.556c-10.051,0-18.197-8.146-18.197-18.195
			c0-10.053,8.146-18.197,18.197-18.197s18.197,8.146,18.197,18.197C350.41,448.408,342.264,456.556,332.213,456.556z"/>
	</g>
</g>
</svg>
